<?xml version="1.0" encoding="UTF-8"?><!DOCTYPE svg PUBLIC "-//W3C//DTD SVG 1.1//EN" "http://www.w3.org/Graphics/SVG/1.1/DTD/svg11.dtd"><svg xmlns="http://www.w3.org/2000/svg" xmlns:xlink="http://www.w3.org/1999/xlink" version="1.1" width="24" height="24" viewBox="0 0 24 24"><path d="M19,19H16V13.7A1.5,1.5 0 0,0 14.5,12.2A1.5,1.5 0 0,0 13,13.7V19H10V10H13V11.2C13.5,10.36 14.59,9.8 15.5,9.8A3.5,3.5 0 0,1 19,13.3M6.5,8.31C5.5,8.31 4.69,7.5 4.69,6.5A1.81,1.81 0 0,1 6.5,4.69C7.5,4.69 8.31,5.5 8.31,6.5A1.81,1.81 0 0,1 6.5,8.31M8,19H5V10H8M20,2H4C2.89,2 2,2.89 2,4V20A2,2 0 0,0 4,22H20A2,2 0 0,0 22,20V4C22,2.89 21.1,2 20,2Z" /></svg>