<?xml version="1.0" encoding="UTF-8" standalone="no"?>
<svg width="100px" height="113px" viewBox="0 0 100 113" version="1.1" xmlns="http://www.w3.org/2000/svg" xmlns:xlink="http://www.w3.org/1999/xlink" xmlns:sketch="http://www.bohemiancoding.com/sketch/ns">
    <title>Untitled</title>
    <description>Created with Sketch (http://www.bohemiancoding.com/sketch)</description>
    <defs></defs>
    <g id="logo" stroke="none" stroke-width="1" fill="none" fill-rule="evenodd" sketch:type="MSPage">
        <path d="M46.5074649,70 C36.837538,70 29,77.83702 29,87.5039839 C29,97.1649719 36.8355459,105 46.4971725,105 C56.1624512,105 63.9999892,97.161652 63.9999892,87.4946881 C64.0106137,77.8423319 56.1727436,70 46.5074649,70 L46.5074649,70 L46.5074649,70 Z" id="Shape" fill="#BDBDBD" sketch:type="MSShapeGroup"></path>
        <path d="M69.5871806,66.6205225 C74.8045767,72.1273295 78.0034129,79.5936139 78.0034129,87.8308513 C78.0034129,98.2556086 72.85682,107.46076 65,113 C79.5220085,108.467526 91.53785,97.4258713 96.9168912,84.051087 C104.354569,65.5509181 97.4295466,51.6247774 85.8027888,39 C86.156805,40.6216364 86.3705505,42.3446251 86.3705505,44.0676138 C86.3685467,54.7802117 79.2715254,63.8059697 69.5871806,66.6205225 L69.5871806,66.6205225 L69.5871806,66.6205225 Z" id="Shape" fill="#BDBDBD" sketch:type="MSShapeGroup"></path>
        <path d="M49,43.4989891 C49,50.9640221 55.0584647,56.9896093 62.4892889,56.9999867 C69.9201131,57.0103641 76,50.9553185 76,43.4989891 C76,36.0439987 69.9565977,30 62.5016736,30 C55.0467495,30 49,36.0439987 49,43.4989891 L49,43.4989891 L49,43.4989891 Z" id="Shape" fill="#BDBDBD" sketch:type="MSShapeGroup"></path>
        <path d="M23.6281719,107 C19.1171439,101.684649 16.3990125,94.8259243 16.3990125,87.3307438 C16.3990125,71.6955169 28.2296236,58.8136695 43.4814362,57.0119467 C40.8642272,53.2450138 39.3273619,48.6811651 39.3273619,43.7607394 C39.3273619,30.8593813 49.8568191,20.3988934 62.8504084,20.3988934 C63.9229629,20.3988934 64.9840027,20.466172 66,20.6007294 C58.3051752,14.004392 50.6272837,7.31453722 44.5668599,0 C47.662265,32.0303666 15.1977651,20.3918291 3.19680516,49.9076553 C-4.84786135,69.7262701 2.41076192,94.192832 23.6146253,107 L23.6281719,107 L23.6281719,107 Z" id="Shape" fill="#BDBDBD" sketch:type="MSShapeGroup"></path>
    </g>
</svg>
