<svg width="100" height="113" viewBox="0 0 100 113" xmlns="http://www.w3.org/2000/svg"><title>Untitled</title><g fill="#BDBDBD" fill-rule="evenodd"><path d="M46.507 70C36.837 70 29 77.837 29 87.504 29 97.164 36.836 105 46.497 105 56.162 105 64 97.162 64 87.495 64.01 77.842 56.173 70 46.507 70zm23.08-3.38c5.218 5.507 8.416 12.974 8.416 21.21 0 10.426-5.146 19.63-13.003 25.17 14.522-4.532 26.538-15.574 31.917-28.95 7.438-18.5.513-32.425-11.114-45.05.354 1.622.568 3.345.568 5.068 0 10.712-7.096 19.738-16.78 22.553zM49 43.5c0 7.464 6.058 13.49 13.49 13.5C69.92 57.01 76 50.955 76 43.5 76 36.043 69.957 30 62.502 30 55.047 30 49 36.044 49 43.5z" id="Shape"/><path d="M23.628 107c-4.51-5.315-7.23-12.174-7.23-19.67 0-15.634 11.832-28.516 27.083-30.318-2.614-3.767-4.15-8.33-4.15-13.25C39.33 30.86 49.86 20.4 62.85 20.4c1.074 0 2.135.064 3.15.2C58.306 14.003 50.628 7.314 44.568 0c3.095 32.03-29.37 20.392-41.37 49.908C-4.848 69.726 2.41 94.193 23.615 107h.013z"/></g></svg>